# xmcd CD database file
#
# Track frame offsets:
#	150
#	23899
#	48731
#	67818
#	85564
#	100059
#	117159
#	140339
#	164668
#	179102
#
# Disc length: 2682 seconds
#
# Revision: 0
# Processed by: cddbd v1.5.2PL0 Copyright (c) Steve Scherf et al.
# Submitted via: jetAudio 7
#
DISCID=840a780a
DTITLE=Duc Thanh - Dan Bau Ngoi Tu Man Thuyen Back
DYEAR=1900
DGENRE=장르 없음
TTITLE0=Con Thuong Rau Dang Moc Sau He
TTITLE1=Con Thuyen Khong Ben
TTITLE2=Hinh Bong Que Nha
TTITLE3=Ngoi Tua Man Thuyen
TTITLE4=Ru Con
TTITLE5=Tieng Xua
TTITLE6=Trang Mo Ben Suoi
TTITLE7=Trau Cau
TTITLE8=Trong Com
TTITLE9=Vi Dam
EXTD=
EXTT0=
EXTT1=
EXTT2=
EXTT3=
EXTT4=
EXTT5=
EXTT6=
EXTT7=
EXTT8=
EXTT9=
PLAYORDER=
